<?xml version="1.0" encoding="utf-8"?>
<!-- Generator: Adobe Illustrator 27.4.1, SVG Export Plug-In . SVG Version: 6.00 Build 0)  -->
<svg version="1.1" id="Layer_1" xmlns="http://www.w3.org/2000/svg" xmlns:xlink="http://www.w3.org/1999/xlink" x="0px" y="0px"
	 viewBox="0 0 651.97 101.07" style="enable-background:new 0 0 651.97 101.07;" xml:space="preserve">
<style type="text/css">
	.st0{fill:#FFFFFF;}
	.st1{fill:#00BED6;}
	.st2{fill:#00C4B3;}
	.st3{fill:#ffffff;}
</style>
<g>
	<g>
		<g>
			<rect x="553.7" y="0" class="st0" width="98.27" height="98.27"/>
			<g>
				<g>
					<g>
						<polygon class="st1" points="647.05,34.4 647.05,4.91 558.61,4.91 558.61,49.14 						"/>
						<path class="st2" d="M558.61,54.05v39.31h88.44V39.31L558.61,54.05z"/>
					</g>
				</g>
			</g>
			<g>
				<path class="st0" d="M610.12,71.18h-2.14c-0.14,0-0.23,0.09-0.23,0.23v2.37c0,0.14,0.09,0.23,0.23,0.23l2.14-0.27
					c0.17-0.03,0.23-0.09,0.23-0.23v-2.1C610.35,71.27,610.26,71.18,610.12,71.18z"/>
				<path class="st0" d="M610.12,76.47l-2.14,0.27c-0.15,0.01-0.23,0.09-0.23,0.23v11.24c0,0.14,0.09,0.23,0.23,0.23h2.14
					c0.14,0,0.23-0.09,0.23-0.23V76.7C610.35,76.56,610.26,76.47,610.12,76.47z"/>
				<path class="st0" d="M626.44,79.76h-5.23c-0.14,0-0.23,0.09-0.23,0.23v1.86c0,0.14,0.1,0.23,0.23,0.23h2.6
					c0.09,0,0.14,0.05,0.14,0.14c0,0.9-0.09,1.55-0.26,2.04c-0.42,1.28-1.6,1.98-3,1.98c-1.6,0-2.53-0.79-2.97-2.07
					c-0.19-0.58-0.28-1.39-0.28-3.63c0-2.25,0.09-3.04,0.28-3.62c0.44-1.28,1.37-2.07,2.97-2.07c1.53,0,2.49,0.7,3.18,1.95
					c0.05,0.09,0.16,0.16,0.3,0.12l1.95-0.86c0.12-0.07,0.14-0.21,0.09-0.33c-0.65-1.77-2.56-3.35-5.51-3.35
					c-2.79,0-4.83,1.3-5.65,3.81c-0.32,0.97-0.42,1.86-0.42,4.34c0,2.49,0.1,3.37,0.42,4.35c0.81,2.51,2.86,3.81,5.65,3.81
					c2.72,0,4.81-1.42,5.58-3.88c0.26-0.79,0.37-2.16,0.37-3.46v-1.37C626.67,79.85,626.58,79.76,626.44,79.76z"/>
				<path class="st0" d="M636.78,72.88c-0.04-0.14-0.14-0.23-0.3-0.23h-2.14c-0.16,0-0.25,0.09-0.3,0.23l-5.41,15.33
					c-0.05,0.14,0,0.23,0.17,0.23h2.25c0.16,0,0.25-0.07,0.3-0.23l1.04-3.07h5.95l1.04,3.07c0.05,0.16,0.14,0.23,0.3,0.23h2.28
					c0.16,0,0.21-0.09,0.16-0.23L636.78,72.88z M633.23,82.71l2.11-6.14h0.07l2.09,6.14H633.23z"/>
			</g>
		</g>
		<g>
			<g>
				<g>
					<g>
						<path class="st3" d="M322.39,34.63c0.17-0.47,0.51-0.78,1.07-0.78h7.5c0.57,0,0.9,0.31,1.06,0.78l18.78,53.04
							c0.15,0.47,0,0.78-0.57,0.78h-8c-0.58,0-0.91-0.24-1.07-0.78l-3.67-11.87H316.6l-3.68,11.87c-0.15,0.55-0.49,0.78-1.06,0.78
							h-7.92c-0.57,0-0.73-0.31-0.57-0.78L322.39,34.63z M334.55,67.6l-7.35-20.57h-0.24l-7.43,20.57H334.55z"/>
						<path class="st3" d="M358.2,44.05c-0.49,0-0.81-0.31-0.81-0.78v-8.53c0-0.47,0.32-0.77,0.81-0.77l7.51,1.33
							c0.49,0,0.81,0.32,0.81,0.78v7.19c0,0.46-0.32,0.78-0.81,0.78H358.2z M358.2,88.45c-0.49,0-0.81-0.32-0.81-0.79V51.62
							c0-0.47,0.32-0.78,0.81-0.78h7.51c0.49,0,0.81,0.31,0.81,0.78v36.05c0,0.47-0.32,0.79-0.81,0.79H358.2z"/>
						<path class="st3" d="M510.93,50.86v-0.02c-4.98,0-8.34,1.08-10.21,3.97l-0.08,0.86v-4.05c0-0.48-0.33-0.78-0.82-0.78h-7.51
							c-0.49,0-0.81,0.31-0.81,0.78v36.04c0,0.47,0.32,0.79,0.81,0.79h7.51c0.49,0,0.82-0.32,0.82-0.79v-19.5
							c0-6.01,2.3-9.52,7.42-9.52l1.45,0.02v-0.02c0.5,0,0.83-0.31,0.83-0.78l1.4-6.21C511.75,51.18,511.41,50.86,510.93,50.86"/>
						<path class="st3" d="M397.5,50.86v-0.02c-4.97,0-8.31,1.08-10.19,3.97l-0.09,0.86v-4.05c0-0.48-0.33-0.78-0.81-0.78h-7.51
							c-0.48,0-0.82,0.31-0.82,0.78v36.04c0,0.47,0.33,0.79,0.82,0.79h7.51c0.48,0,0.81-0.32,0.81-0.79v-19.5
							c0-6.01,2.29-9.52,7.43-9.52l1.46,0.02v-0.02c0.49,0,0.81-0.31,0.81-0.78l1.41-6.21C398.32,51.18,398,50.86,397.5,50.86"/>
						<path class="st3" d="M407.35,99.73c-0.49,0-0.83-0.3-0.83-0.77V51.62c0-0.47,0.34-0.78,0.83-0.78h7.51
							c0.49,0,0.81,0.31,0.81,0.78v2.81h0.09c1.87-2.58,5.14-4.45,10.44-4.45c6.7,0,11.59,3.04,13.63,9.04
							c0.97,2.89,1.39,5.55,1.39,10.61c0,5.08-0.41,7.72-1.39,10.61c-2.04,6.01-6.93,9.05-13.63,9.05c-5.3,0-8.57-1.87-10.44-4.45
							h-0.09v15.44c0,0.47-0.32,0.78-0.81,0.78L407.35,99.73z M431.09,76.67c0.57-1.72,0.81-3.58,0.81-7.03
							c0-3.43-0.24-5.31-0.81-7.02c-1.06-3.12-3.59-4.84-7.26-4.84c-3.76,0-6.28,1.72-7.35,4.84c-0.57,1.71-0.82,3.59-0.82,7.02
							c0,3.45,0.25,5.31,0.82,7.03c1.06,3.12,3.59,4.83,7.35,4.83C427.5,81.5,430.03,79.79,431.09,76.67"/>
						<path class="st3" d="M449.65,78.93c-0.89-2.66-1.3-5.16-1.3-9.29c0-4.13,0.4-6.63,1.3-9.29c2.22-6.55,8.24-10.37,16.25-10.37
							c7.91,0,13.95,3.82,16.17,10.37c0.89,2.66,1.29,5.16,1.29,9.29c0,4.13-0.4,6.63-1.29,9.29c-2.22,6.55-8.26,10.37-16.17,10.37
							C457.89,89.3,451.87,85.48,449.65,78.93 M473.24,76.58c0.65-1.95,0.82-3.74,0.82-6.94c0-3.2-0.17-4.92-0.82-6.95
							c-1.14-3.12-3.67-4.91-7.34-4.91c-3.67,0-6.29,1.8-7.43,4.91c-0.65,2.03-0.82,3.74-0.82,6.95c0,3.2,0.16,4.99,0.82,6.94
							c1.13,3.12,3.76,4.92,7.43,4.92C469.57,81.5,472.1,79.7,473.24,76.58"/>
						<path class="st3" d="M519.94,59.01v18.91c0,7.33,3.02,11,10.95,11h5.87c0.48,0,0.8-0.31,0.8-0.78l1.4-6.24
							c0-0.47-0.31-0.78-0.8-0.78h-5.4c-2.52,0-3.68-0.85-3.68-3.51V59.01c0-0.31,0.17-0.47,0.5-0.47h4.64
							c0.49,0,0.81-0.31,0.81-0.78l0.04-6.14c0-0.47-0.33-0.78-0.82-0.78h-4.66c-0.33,0-0.5-0.15-0.5-0.47V38.26
							c0-0.47-0.32-0.78-0.8-0.78l-7.51,2.44c-0.5,0-0.83,0.32-0.83,0.78v9.68V59.01z"/>
					</g>
					<path class="st3" d="M378.08,43.77v-0.94c0-0.16,0.12-0.28,0.28-0.28c5.6,0.1,89.99,1.01,150.33-22.88
						c0.19-0.07,0.39,0.06,0.39,0.26v3.37c0,0.11-0.07,0.21-0.17,0.26c-25.29,10.38-64.29,15.29-93.28,17.58
						c-29.7,2.35-54.39,2.89-57.26,2.9C378.2,44.05,378.08,43.93,378.08,43.77z"/>
				</g>
				<g>
					<path class="st3" d="M0,35.7c0-0.51,0.33-0.85,0.82-0.85l8,1.47c0.48,0,0.81,0.33,0.81,0.85v50.44c0,0.51-0.33,0.86-0.81,0.86
						h-8C0.33,88.47,0,88.13,0,87.61V35.7z"/>
					<path class="st3" d="M154.46,88.47c-0.5,0-0.82-0.31-0.82-0.78V66c0-4.84-2.53-8.19-7.43-8.19c-4.74,0-7.51,3.35-7.51,8.19
						v21.69c0,0.47-0.32,0.78-0.82,0.78h-7.51c-0.49,0-0.81-0.31-0.81-0.78V51.64c0-0.47,0.33-0.78,0.81-0.78h7.51
						c0.49,0,0.82,0.31,0.82,0.78v2.73h0.09c1.71-2.34,5.15-4.37,10.37-4.37c8.41,0,13.63,5.93,13.63,13.97v23.72
						c0,0.47-0.32,0.78-0.82,0.78H154.46z"/>
					<path class="st3" d="M183.28,84.88h-0.08v2.81c0,0.47-0.32,0.78-0.81,0.78h-7.51c-0.49,0-0.83-0.31-0.83-0.78V40.72
						c0-0.46,0.34-0.77,0.83-0.77l7.51,1.34c0.5,0,0.81,0.3,0.81,0.78v12.38h0.08c1.88-2.58,5.15-4.45,10.45-4.45
						c6.69,0,11.58,3.04,13.63,9.05c0.98,2.89,1.39,5.55,1.39,10.62c0,5.07-0.41,7.72-1.39,10.6c-2.04,6.01-6.94,9.05-13.63,9.05
						C188.42,89.32,185.16,87.46,183.28,84.88 M198.62,76.69c0.59-1.72,0.82-3.58,0.82-7.02c0-3.43-0.23-5.3-0.82-7.02
						c-1.06-3.12-3.58-4.84-7.26-4.84c-3.76,0-6.29,1.71-7.35,4.84c-0.57,1.72-0.82,3.59-0.82,7.02c0,3.44,0.25,5.3,0.82,7.02
						c1.05,3.12,3.59,4.84,7.35,4.84C195.04,81.53,197.55,79.81,198.62,76.69"/>
					<path class="st3" d="M242.03,88.47c-0.48,0-0.81-0.31-0.81-0.78v-2.73h-0.08c-2.13,2.58-5.23,4.37-10.21,4.37
						c-8.4,0-13.55-5.94-13.55-13.97V51.64c0-0.47,0.33-0.78,0.81-0.78l7.52,1.34c0.49,0,0.81,0.31,0.81,0.78v20.35
						c0,4.84,2.37,8.19,7.34,8.19c4.65,0,7.35-3.35,7.35-8.11V51.64c0-0.47,0.33-0.78,0.81-0.78l7.51,1.34
						c0.49,0,0.82,0.31,0.82,0.78v34.71c0,0.47-0.32,0.78-0.82,0.78H242.03z"/>
					<path class="st3" d="M272.42,88.94c-7.67,0-10.78-3.51-10.78-10.76V40.72c0-0.46,0.33-0.78,0.82-0.78l7.51,1.34
						c0.49,0,0.82,0.31,0.82,0.78V77.7c0,2.59,1.06,3.44,3.43,3.44h1.8c0.49,0,0.8,0.31,0.8,0.78v6.24c0,0.47-0.31,0.78-0.8,0.78
						H272.42z"/>
					<path class="st3" d="M58.88,77.94c0,7.33,3.01,11,10.93,11h5.87c0.5,0,0.82-0.31,0.82-0.78l1.39-6.24
						c0-0.47-0.32-0.78-0.82-0.78h-5.38c-2.54,0-3.67-0.85-3.67-3.51V59.03c0-0.31,0.16-0.47,0.49-0.47h8.84
						c0.49,0,0.82-0.31,0.82-0.78l1.4-6.14c0-0.47-0.33-0.78-0.81-0.78H68.51c-0.33,0-0.49-0.15-0.49-0.47v-8.34
						c0-0.47-0.33-0.78-0.82-0.78l-7.51-1.34c-0.49,0-0.81,0.32-0.81,0.78V77.94z"/>
					<path class="st3" d="M118.49,70.43v-4.6c0-10.58-5.22-14.96-13.63-14.96H91.43c-0.5,0-0.82,0.31-0.82,0.78L92,57.86
						c0,0.48,0.33,0.8,0.82,0.8h5.05h2.45l0.2,0.01c4.55,0,8.94,1.05,9.33,6.11c0-0.01,0-0.03-0.01-0.04v0.72
						c0,0.31-0.17,0.47-0.5,0.47h-8c-9.71,0-15.75,3.74-15.75,11.94c0,7.88,6.05,11.46,13.23,11.46c5.54,0,9.22-1.79,11.09-4.36H110
						v2.73c0,0.46,0.32,0.78,0.81,0.78h6.08h0.78c0.49,0,0.82-0.32,0.82-0.78V70.43z M109.84,75.83c0,4.29-3.1,6.4-8.74,6.4
						c-4.41,0-6.77-1.56-6.77-4.68c0-3.51,2.61-5.08,8.49-5.08h6.52c0.33,0,0.5,0.15,0.5,0.47V75.83z"/>
					<path class="st3" d="M28.8,62.75c0,2.26,0.89,3.61,3.52,3.61l1.11-0.02l5.79-0.04c0,0,0,0.02,0,0.03h0.28
						c7.66,0,10.76,3.44,10.76,10.55v1.06c0,7.1-3.1,10.55-10.76,10.55H22.22c-0.49,0-0.83-0.32-0.83-0.8l1.41-6.04
						c0-0.48,0.33-0.8,0.82-0.8h2.23h10.44h1.41c2.37,0,3.77-0.84,3.77-3.37l-0.03-0.82c0-2.26-0.87-3.6-3.51-3.6l-1.01-0.03h-2.63
						l-3.52,0.03c-7.67,0-10.78-3.44-10.78-10.55v-0.02v-1.06V60.5c0-0.06,0.03-0.11,0.04-0.16c0.31-6.39,3.47-9.48,10.74-9.48
						h15.76c0.48,0,0.81,0.31,0.81,0.8l-1.41,6.04c0,0.48-0.32,0.8-0.81,0.8h-5.91l-3.84-0.01h-2.8c-2.37,0-3.77,0.84-3.77,3.36
						V62.75z"/>
				</g>
			</g>
		</g>
	</g>
</g>
</svg>
